<mxfile host="app.diagrams.net" agent="Mozilla/5.0 (Windows NT 10.0; Win64; x64) AppleWebKit/537.36 (KHTML, like Gecko) Chrome/132.0.0.0 Safari/537.36 Edg/132.0.0.0" version="26.0.8">
  <diagram id="UpwW_3bpMgygPteX8tk0" name="Page-1">
    <mxGraphModel dx="983" dy="569" grid="1" gridSize="10" guides="1" tooltips="1" connect="1" arrows="1" fold="1" page="1" pageScale="1" pageWidth="1100" pageHeight="850" math="0" shadow="0">
      <root>
        <mxCell id="0" />
        <mxCell id="1" parent="0" />
        <mxCell id="CwxjlhTfIW4MWgsIg6It-1" value="Investigation_centre" style="rounded=0;whiteSpace=wrap;html=1;" parent="1" vertex="1">
          <mxGeometry x="370" y="580" width="120" height="60" as="geometry" />
        </mxCell>
        <mxCell id="CwxjlhTfIW4MWgsIg6It-2" value="centre_name" style="ellipse;whiteSpace=wrap;html=1;align=center;" parent="1" vertex="1">
          <mxGeometry x="210" y="495" width="100" height="40" as="geometry" />
        </mxCell>
        <mxCell id="CwxjlhTfIW4MWgsIg6It-3" value="centre_id" style="ellipse;whiteSpace=wrap;html=1;align=center;fontStyle=4;" parent="1" vertex="1">
          <mxGeometry x="180" y="585" width="100" height="40" as="geometry" />
        </mxCell>
        <mxCell id="CwxjlhTfIW4MWgsIg6It-4" value="centre_code" style="ellipse;whiteSpace=wrap;html=1;align=center;" parent="1" vertex="1">
          <mxGeometry x="380" y="465" width="100" height="40" as="geometry" />
        </mxCell>
        <mxCell id="CwxjlhTfIW4MWgsIg6It-5" value="" style="endArrow=none;html=1;rounded=0;exitX=1;exitY=0.5;exitDx=0;exitDy=0;entryX=0;entryY=0.5;entryDx=0;entryDy=0;" parent="1" source="CwxjlhTfIW4MWgsIg6It-3" target="CwxjlhTfIW4MWgsIg6It-1" edge="1">
          <mxGeometry relative="1" as="geometry">
            <mxPoint x="360" y="515" as="sourcePoint" />
            <mxPoint x="520" y="515" as="targetPoint" />
          </mxGeometry>
        </mxCell>
        <mxCell id="CwxjlhTfIW4MWgsIg6It-6" value="" style="endArrow=none;html=1;rounded=0;exitX=1;exitY=0.5;exitDx=0;exitDy=0;entryX=0;entryY=0.25;entryDx=0;entryDy=0;" parent="1" source="CwxjlhTfIW4MWgsIg6It-2" target="CwxjlhTfIW4MWgsIg6It-1" edge="1">
          <mxGeometry relative="1" as="geometry">
            <mxPoint x="350" y="485" as="sourcePoint" />
            <mxPoint x="420" y="455" as="targetPoint" />
          </mxGeometry>
        </mxCell>
        <mxCell id="CwxjlhTfIW4MWgsIg6It-7" value="" style="endArrow=none;html=1;rounded=0;exitX=0.5;exitY=1;exitDx=0;exitDy=0;entryX=0.5;entryY=0;entryDx=0;entryDy=0;" parent="1" source="CwxjlhTfIW4MWgsIg6It-4" target="CwxjlhTfIW4MWgsIg6It-1" edge="1">
          <mxGeometry relative="1" as="geometry">
            <mxPoint x="350" y="475" as="sourcePoint" />
            <mxPoint x="390" y="510" as="targetPoint" />
          </mxGeometry>
        </mxCell>
        <mxCell id="CwxjlhTfIW4MWgsIg6It-8" value="users" style="rounded=0;whiteSpace=wrap;html=1;" parent="1" vertex="1">
          <mxGeometry x="880" y="580" width="120" height="60" as="geometry" />
        </mxCell>
        <mxCell id="CwxjlhTfIW4MWgsIg6It-9" value="username" style="ellipse;whiteSpace=wrap;html=1;align=center;" parent="1" vertex="1">
          <mxGeometry x="650" y="475" width="100" height="40" as="geometry" />
        </mxCell>
        <mxCell id="CwxjlhTfIW4MWgsIg6It-10" value="user_id" style="ellipse;whiteSpace=wrap;html=1;align=center;fontStyle=4;" parent="1" vertex="1">
          <mxGeometry x="620" y="645" width="100" height="40" as="geometry" />
        </mxCell>
        <mxCell id="CwxjlhTfIW4MWgsIg6It-11" value="email" style="ellipse;whiteSpace=wrap;html=1;align=center;" parent="1" vertex="1">
          <mxGeometry x="720" y="410" width="100" height="40" as="geometry" />
        </mxCell>
        <mxCell id="CwxjlhTfIW4MWgsIg6It-12" value="" style="endArrow=none;html=1;rounded=0;exitX=1;exitY=0.5;exitDx=0;exitDy=0;entryX=0;entryY=0.75;entryDx=0;entryDy=0;" parent="1" source="CwxjlhTfIW4MWgsIg6It-10" target="CwxjlhTfIW4MWgsIg6It-8" edge="1">
          <mxGeometry relative="1" as="geometry">
            <mxPoint x="850" y="600" as="sourcePoint" />
            <mxPoint x="1010" y="600" as="targetPoint" />
          </mxGeometry>
        </mxCell>
        <mxCell id="CwxjlhTfIW4MWgsIg6It-13" value="" style="endArrow=none;html=1;rounded=0;exitX=1;exitY=1;exitDx=0;exitDy=0;entryX=0;entryY=0.25;entryDx=0;entryDy=0;" parent="1" source="CwxjlhTfIW4MWgsIg6It-9" target="CwxjlhTfIW4MWgsIg6It-8" edge="1">
          <mxGeometry relative="1" as="geometry">
            <mxPoint x="840" y="570" as="sourcePoint" />
            <mxPoint x="910" y="540" as="targetPoint" />
          </mxGeometry>
        </mxCell>
        <mxCell id="CwxjlhTfIW4MWgsIg6It-14" value="" style="endArrow=none;html=1;rounded=0;exitX=1;exitY=1;exitDx=0;exitDy=0;entryX=0.25;entryY=0;entryDx=0;entryDy=0;" parent="1" source="CwxjlhTfIW4MWgsIg6It-11" target="CwxjlhTfIW4MWgsIg6It-8" edge="1">
          <mxGeometry relative="1" as="geometry">
            <mxPoint x="840" y="560" as="sourcePoint" />
            <mxPoint x="900" y="570" as="targetPoint" />
          </mxGeometry>
        </mxCell>
        <mxCell id="CwxjlhTfIW4MWgsIg6It-15" value="password" style="ellipse;whiteSpace=wrap;html=1;align=center;" parent="1" vertex="1">
          <mxGeometry x="990" y="370" width="100" height="40" as="geometry" />
        </mxCell>
        <mxCell id="CwxjlhTfIW4MWgsIg6It-16" value="phonenumber" style="ellipse;whiteSpace=wrap;html=1;align=center;" parent="1" vertex="1">
          <mxGeometry x="1090" y="470" width="100" height="40" as="geometry" />
        </mxCell>
        <mxCell id="CwxjlhTfIW4MWgsIg6It-17" value="" style="endArrow=none;html=1;rounded=0;exitX=0.5;exitY=1;exitDx=0;exitDy=0;entryX=0.75;entryY=0;entryDx=0;entryDy=0;" parent="1" source="CwxjlhTfIW4MWgsIg6It-15" target="CwxjlhTfIW4MWgsIg6It-8" edge="1">
          <mxGeometry relative="1" as="geometry">
            <mxPoint x="890" y="520" as="sourcePoint" />
            <mxPoint x="940" y="580" as="targetPoint" />
          </mxGeometry>
        </mxCell>
        <mxCell id="CwxjlhTfIW4MWgsIg6It-18" value="" style="endArrow=none;html=1;rounded=0;exitX=0.5;exitY=1;exitDx=0;exitDy=0;entryX=1;entryY=0;entryDx=0;entryDy=0;" parent="1" source="CwxjlhTfIW4MWgsIg6It-16" target="CwxjlhTfIW4MWgsIg6It-8" edge="1">
          <mxGeometry relative="1" as="geometry">
            <mxPoint x="1000" y="500" as="sourcePoint" />
            <mxPoint x="970" y="580" as="targetPoint" />
          </mxGeometry>
        </mxCell>
        <mxCell id="CwxjlhTfIW4MWgsIg6It-19" value="usertype" style="ellipse;whiteSpace=wrap;html=1;align=center;" parent="1" vertex="1">
          <mxGeometry x="1110" y="535" width="100" height="40" as="geometry" />
        </mxCell>
        <mxCell id="CwxjlhTfIW4MWgsIg6It-20" value="" style="endArrow=none;html=1;rounded=0;exitX=0;exitY=0.5;exitDx=0;exitDy=0;entryX=1;entryY=0.25;entryDx=0;entryDy=0;" parent="1" source="CwxjlhTfIW4MWgsIg6It-19" target="CwxjlhTfIW4MWgsIg6It-8" edge="1">
          <mxGeometry relative="1" as="geometry">
            <mxPoint x="1070" y="500" as="sourcePoint" />
            <mxPoint x="1000" y="580" as="targetPoint" />
          </mxGeometry>
        </mxCell>
        <mxCell id="CwxjlhTfIW4MWgsIg6It-21" value="created_at" style="ellipse;whiteSpace=wrap;html=1;align=center;" parent="1" vertex="1">
          <mxGeometry x="590" y="515" width="100" height="40" as="geometry" />
        </mxCell>
        <mxCell id="CwxjlhTfIW4MWgsIg6It-22" value="" style="endArrow=none;html=1;rounded=0;exitX=1;exitY=0.5;exitDx=0;exitDy=0;" parent="1" source="CwxjlhTfIW4MWgsIg6It-21" edge="1">
          <mxGeometry relative="1" as="geometry">
            <mxPoint x="815" y="514" as="sourcePoint" />
            <mxPoint x="880" y="605" as="targetPoint" />
          </mxGeometry>
        </mxCell>
        <mxCell id="CwxjlhTfIW4MWgsIg6It-23" value="reports" style="rounded=0;whiteSpace=wrap;html=1;" parent="1" vertex="1">
          <mxGeometry x="880" y="900" width="120" height="60" as="geometry" />
        </mxCell>
        <mxCell id="CwxjlhTfIW4MWgsIg6It-24" value="title" style="ellipse;whiteSpace=wrap;html=1;align=center;" parent="1" vertex="1">
          <mxGeometry x="720" y="730" width="100" height="40" as="geometry" />
        </mxCell>
        <mxCell id="CwxjlhTfIW4MWgsIg6It-25" value="report_id" style="ellipse;whiteSpace=wrap;html=1;align=center;fontStyle=4;" parent="1" vertex="1">
          <mxGeometry x="660" y="990" width="100" height="40" as="geometry" />
        </mxCell>
        <mxCell id="CwxjlhTfIW4MWgsIg6It-26" value="description" style="ellipse;whiteSpace=wrap;html=1;align=center;" parent="1" vertex="1">
          <mxGeometry x="830" y="770" width="100" height="40" as="geometry" />
        </mxCell>
        <mxCell id="CwxjlhTfIW4MWgsIg6It-27" value="" style="endArrow=none;html=1;rounded=0;exitX=1;exitY=0.5;exitDx=0;exitDy=0;entryX=0;entryY=0.75;entryDx=0;entryDy=0;" parent="1" source="CwxjlhTfIW4MWgsIg6It-25" target="CwxjlhTfIW4MWgsIg6It-23" edge="1">
          <mxGeometry relative="1" as="geometry">
            <mxPoint x="850" y="870" as="sourcePoint" />
            <mxPoint x="1010" y="870" as="targetPoint" />
          </mxGeometry>
        </mxCell>
        <mxCell id="CwxjlhTfIW4MWgsIg6It-28" value="" style="endArrow=none;html=1;rounded=0;exitX=1;exitY=1;exitDx=0;exitDy=0;entryX=0;entryY=0;entryDx=0;entryDy=0;" parent="1" source="CwxjlhTfIW4MWgsIg6It-24" target="CwxjlhTfIW4MWgsIg6It-23" edge="1">
          <mxGeometry relative="1" as="geometry">
            <mxPoint x="840" y="840" as="sourcePoint" />
            <mxPoint x="910" y="810" as="targetPoint" />
          </mxGeometry>
        </mxCell>
        <mxCell id="CwxjlhTfIW4MWgsIg6It-29" value="" style="endArrow=none;html=1;rounded=0;exitX=0.5;exitY=1;exitDx=0;exitDy=0;entryX=0.25;entryY=0;entryDx=0;entryDy=0;" parent="1" source="CwxjlhTfIW4MWgsIg6It-26" target="CwxjlhTfIW4MWgsIg6It-23" edge="1">
          <mxGeometry relative="1" as="geometry">
            <mxPoint x="840" y="830" as="sourcePoint" />
            <mxPoint x="880" y="865" as="targetPoint" />
          </mxGeometry>
        </mxCell>
        <mxCell id="CwxjlhTfIW4MWgsIg6It-30" value="upvote_count" style="ellipse;whiteSpace=wrap;html=1;align=center;" parent="1" vertex="1">
          <mxGeometry x="1100" y="860" width="100" height="40" as="geometry" />
        </mxCell>
        <mxCell id="CwxjlhTfIW4MWgsIg6It-31" value="downvote_count" style="ellipse;whiteSpace=wrap;html=1;align=center;" parent="1" vertex="1">
          <mxGeometry x="1090" y="920" width="100" height="40" as="geometry" />
        </mxCell>
        <mxCell id="CwxjlhTfIW4MWgsIg6It-32" value="" style="endArrow=none;html=1;rounded=0;exitX=0;exitY=0.5;exitDx=0;exitDy=0;entryX=1;entryY=0;entryDx=0;entryDy=0;" parent="1" source="CwxjlhTfIW4MWgsIg6It-30" target="CwxjlhTfIW4MWgsIg6It-23" edge="1">
          <mxGeometry relative="1" as="geometry">
            <mxPoint x="890" y="790" as="sourcePoint" />
            <mxPoint x="1010" y="900" as="targetPoint" />
          </mxGeometry>
        </mxCell>
        <mxCell id="CwxjlhTfIW4MWgsIg6It-33" value="" style="endArrow=none;html=1;rounded=0;exitX=0;exitY=0.5;exitDx=0;exitDy=0;entryX=1;entryY=0.25;entryDx=0;entryDy=0;" parent="1" source="CwxjlhTfIW4MWgsIg6It-31" target="CwxjlhTfIW4MWgsIg6It-23" edge="1">
          <mxGeometry relative="1" as="geometry">
            <mxPoint x="1000" y="770" as="sourcePoint" />
            <mxPoint x="970" y="850" as="targetPoint" />
          </mxGeometry>
        </mxCell>
        <mxCell id="CwxjlhTfIW4MWgsIg6It-34" value="location" style="ellipse;whiteSpace=wrap;html=1;align=center;" parent="1" vertex="1">
          <mxGeometry x="1080" y="990" width="100" height="40" as="geometry" />
        </mxCell>
        <mxCell id="CwxjlhTfIW4MWgsIg6It-35" value="" style="endArrow=none;html=1;rounded=0;exitX=0;exitY=0.5;exitDx=0;exitDy=0;entryX=1;entryY=0.75;entryDx=0;entryDy=0;" parent="1" source="CwxjlhTfIW4MWgsIg6It-34" target="CwxjlhTfIW4MWgsIg6It-23" edge="1">
          <mxGeometry relative="1" as="geometry">
            <mxPoint x="1070" y="770" as="sourcePoint" />
            <mxPoint x="1000" y="850" as="targetPoint" />
          </mxGeometry>
        </mxCell>
        <mxCell id="CwxjlhTfIW4MWgsIg6It-36" value="created_at" style="ellipse;whiteSpace=wrap;html=1;align=center;" parent="1" vertex="1">
          <mxGeometry x="680" y="845" width="100" height="40" as="geometry" />
        </mxCell>
        <mxCell id="CwxjlhTfIW4MWgsIg6It-37" value="" style="endArrow=none;html=1;rounded=0;exitX=1;exitY=0.5;exitDx=0;exitDy=0;entryX=0;entryY=0.5;entryDx=0;entryDy=0;" parent="1" source="CwxjlhTfIW4MWgsIg6It-36" target="CwxjlhTfIW4MWgsIg6It-23" edge="1">
          <mxGeometry relative="1" as="geometry">
            <mxPoint x="815" y="784" as="sourcePoint" />
            <mxPoint x="880" y="875" as="targetPoint" />
          </mxGeometry>
        </mxCell>
        <mxCell id="CwxjlhTfIW4MWgsIg6It-38" value="status" style="ellipse;whiteSpace=wrap;html=1;align=center;" parent="1" vertex="1">
          <mxGeometry x="890" y="1030" width="100" height="40" as="geometry" />
        </mxCell>
        <mxCell id="CwxjlhTfIW4MWgsIg6It-39" value="" style="endArrow=none;html=1;rounded=0;entryX=0.5;entryY=0;entryDx=0;entryDy=0;exitX=0.5;exitY=1;exitDx=0;exitDy=0;" parent="1" source="oE_XRQ_vZmTgWbJJ4Rda-1" target="CwxjlhTfIW4MWgsIg6It-23" edge="1">
          <mxGeometry relative="1" as="geometry">
            <mxPoint x="930" y="750" as="sourcePoint" />
            <mxPoint x="920" y="860" as="targetPoint" />
            <Array as="points" />
          </mxGeometry>
        </mxCell>
        <mxCell id="CwxjlhTfIW4MWgsIg6It-40" value="" style="endArrow=none;html=1;rounded=0;exitX=0.5;exitY=0;exitDx=0;exitDy=0;entryX=0.5;entryY=1;entryDx=0;entryDy=0;" parent="1" source="CwxjlhTfIW4MWgsIg6It-38" target="CwxjlhTfIW4MWgsIg6It-23" edge="1">
          <mxGeometry relative="1" as="geometry">
            <mxPoint x="1150" y="800" as="sourcePoint" />
            <mxPoint x="1000" y="875" as="targetPoint" />
          </mxGeometry>
        </mxCell>
        <mxCell id="CwxjlhTfIW4MWgsIg6It-41" value="image" style="ellipse;whiteSpace=wrap;html=1;align=center;" parent="1" vertex="1">
          <mxGeometry x="680" y="790" width="100" height="40" as="geometry" />
        </mxCell>
        <mxCell id="CwxjlhTfIW4MWgsIg6It-42" value="" style="endArrow=none;html=1;rounded=0;exitX=1;exitY=0.5;exitDx=0;exitDy=0;entryX=0;entryY=0.25;entryDx=0;entryDy=0;" parent="1" source="CwxjlhTfIW4MWgsIg6It-41" target="CwxjlhTfIW4MWgsIg6It-23" edge="1">
          <mxGeometry relative="1" as="geometry">
            <mxPoint x="785" y="734" as="sourcePoint" />
            <mxPoint x="870" y="870" as="targetPoint" />
          </mxGeometry>
        </mxCell>
        <mxCell id="CwxjlhTfIW4MWgsIg6It-43" value="comments" style="rounded=0;whiteSpace=wrap;html=1;" parent="1" vertex="1">
          <mxGeometry x="375" y="900" width="120" height="60" as="geometry" />
        </mxCell>
        <mxCell id="CwxjlhTfIW4MWgsIg6It-44" value="comment_id" style="ellipse;whiteSpace=wrap;html=1;align=center;fontStyle=4;" parent="1" vertex="1">
          <mxGeometry x="190" y="880" width="100" height="40" as="geometry" />
        </mxCell>
        <mxCell id="CwxjlhTfIW4MWgsIg6It-45" value="" style="endArrow=none;html=1;rounded=0;exitX=1;exitY=0.5;exitDx=0;exitDy=0;entryX=0;entryY=0.75;entryDx=0;entryDy=0;" parent="1" source="CwxjlhTfIW4MWgsIg6It-44" target="CwxjlhTfIW4MWgsIg6It-43" edge="1">
          <mxGeometry relative="1" as="geometry">
            <mxPoint x="330" y="870" as="sourcePoint" />
            <mxPoint x="490" y="870" as="targetPoint" />
          </mxGeometry>
        </mxCell>
        <mxCell id="CwxjlhTfIW4MWgsIg6It-46" value="created_at" style="ellipse;whiteSpace=wrap;html=1;align=center;" parent="1" vertex="1">
          <mxGeometry x="210" y="800" width="100" height="40" as="geometry" />
        </mxCell>
        <mxCell id="CwxjlhTfIW4MWgsIg6It-47" value="" style="endArrow=none;html=1;rounded=0;exitX=1;exitY=0.5;exitDx=0;exitDy=0;entryX=0;entryY=0.25;entryDx=0;entryDy=0;" parent="1" source="CwxjlhTfIW4MWgsIg6It-46" target="CwxjlhTfIW4MWgsIg6It-43" edge="1">
          <mxGeometry relative="1" as="geometry">
            <mxPoint x="295" y="784" as="sourcePoint" />
            <mxPoint x="360" y="875" as="targetPoint" />
          </mxGeometry>
        </mxCell>
        <mxCell id="CwxjlhTfIW4MWgsIg6It-48" value="comment_text" style="ellipse;whiteSpace=wrap;html=1;align=center;" parent="1" vertex="1">
          <mxGeometry x="400" y="740" width="100" height="40" as="geometry" />
        </mxCell>
        <mxCell id="CwxjlhTfIW4MWgsIg6It-49" value="" style="endArrow=none;html=1;rounded=0;exitX=0.5;exitY=1;exitDx=0;exitDy=0;entryX=0.5;entryY=0;entryDx=0;entryDy=0;" parent="1" source="CwxjlhTfIW4MWgsIg6It-48" target="CwxjlhTfIW4MWgsIg6It-43" edge="1">
          <mxGeometry relative="1" as="geometry">
            <mxPoint x="265" y="734" as="sourcePoint" />
            <mxPoint x="350" y="870" as="targetPoint" />
          </mxGeometry>
        </mxCell>
        <mxCell id="CwxjlhTfIW4MWgsIg6It-50" value="" style="endArrow=none;html=1;rounded=0;exitX=1;exitY=0.5;exitDx=0;exitDy=0;entryX=0;entryY=0.5;entryDx=0;entryDy=0;" parent="1" source="oE_XRQ_vZmTgWbJJ4Rda-42" target="CwxjlhTfIW4MWgsIg6It-23" edge="1">
          <mxGeometry relative="1" as="geometry">
            <mxPoint x="950" y="650" as="sourcePoint" />
            <mxPoint x="950" y="860" as="targetPoint" />
          </mxGeometry>
        </mxCell>
        <mxCell id="CwxjlhTfIW4MWgsIg6It-51" value="1" style="text;strokeColor=none;fillColor=none;spacingLeft=4;spacingRight=4;overflow=hidden;rotatable=0;points=[[0,0.5],[1,0.5]];portConstraint=eastwest;fontSize=12;whiteSpace=wrap;html=1;" parent="1" vertex="1">
          <mxGeometry x="950" y="650" width="40" height="30" as="geometry" />
        </mxCell>
        <mxCell id="CwxjlhTfIW4MWgsIg6It-52" value="m" style="text;strokeColor=none;fillColor=none;spacingLeft=4;spacingRight=4;overflow=hidden;rotatable=0;points=[[0,0.5],[1,0.5]];portConstraint=eastwest;fontSize=12;whiteSpace=wrap;html=1;" parent="1" vertex="1">
          <mxGeometry x="910" y="850" width="40" height="30" as="geometry" />
        </mxCell>
        <mxCell id="CwxjlhTfIW4MWgsIg6It-53" value="1" style="text;strokeColor=none;fillColor=none;spacingLeft=4;spacingRight=4;overflow=hidden;rotatable=0;points=[[0,0.5],[1,0.5]];portConstraint=eastwest;fontSize=12;whiteSpace=wrap;html=1;" parent="1" vertex="1">
          <mxGeometry x="820" y="890" width="40" height="30" as="geometry" />
        </mxCell>
        <mxCell id="CwxjlhTfIW4MWgsIg6It-54" value="m" style="text;strokeColor=none;fillColor=none;spacingLeft=4;spacingRight=4;overflow=hidden;rotatable=0;points=[[0,0.5],[1,0.5]];portConstraint=eastwest;fontSize=12;whiteSpace=wrap;html=1;" parent="1" vertex="1">
          <mxGeometry x="520" y="890" width="40" height="30" as="geometry" />
        </mxCell>
        <mxCell id="CwxjlhTfIW4MWgsIg6It-55" value="" style="endArrow=none;html=1;rounded=0;exitX=0;exitY=0.75;exitDx=0;exitDy=0;entryX=0.75;entryY=0;entryDx=0;entryDy=0;" parent="1" source="oE_XRQ_vZmTgWbJJ4Rda-45" target="CwxjlhTfIW4MWgsIg6It-43" edge="1">
          <mxGeometry relative="1" as="geometry">
            <mxPoint x="520" y="890" as="sourcePoint" />
            <mxPoint x="890" y="890" as="targetPoint" />
          </mxGeometry>
        </mxCell>
        <mxCell id="CwxjlhTfIW4MWgsIg6It-56" value="m" style="text;strokeColor=none;fillColor=none;spacingLeft=4;spacingRight=4;overflow=hidden;rotatable=0;points=[[0,0.5],[1,0.5]];portConstraint=eastwest;fontSize=12;whiteSpace=wrap;html=1;" parent="1" vertex="1">
          <mxGeometry x="470" y="805" width="40" height="30" as="geometry" />
        </mxCell>
        <mxCell id="CwxjlhTfIW4MWgsIg6It-57" value="1" style="text;strokeColor=none;fillColor=none;spacingLeft=4;spacingRight=4;overflow=hidden;rotatable=0;points=[[0,0.5],[1,0.5]];portConstraint=eastwest;fontSize=12;whiteSpace=wrap;html=1;" parent="1" vertex="1">
          <mxGeometry x="810" y="620" width="40" height="30" as="geometry" />
        </mxCell>
        <mxCell id="CwxjlhTfIW4MWgsIg6It-58" value="user_profile" style="rounded=0;whiteSpace=wrap;html=1;" parent="1" vertex="1">
          <mxGeometry x="1420" y="580" width="120" height="60" as="geometry" />
        </mxCell>
        <mxCell id="CwxjlhTfIW4MWgsIg6It-59" value="address" style="ellipse;whiteSpace=wrap;html=1;align=center;" parent="1" vertex="1">
          <mxGeometry x="1260" y="465" width="100" height="40" as="geometry" />
        </mxCell>
        <mxCell id="CwxjlhTfIW4MWgsIg6It-60" value="profile_id" style="ellipse;whiteSpace=wrap;html=1;align=center;fontStyle=4;" parent="1" vertex="1">
          <mxGeometry x="1270" y="630" width="100" height="40" as="geometry" />
        </mxCell>
        <mxCell id="CwxjlhTfIW4MWgsIg6It-61" value="image" style="ellipse;whiteSpace=wrap;html=1;align=center;" parent="1" vertex="1">
          <mxGeometry x="1370" y="435" width="100" height="40" as="geometry" />
        </mxCell>
        <mxCell id="CwxjlhTfIW4MWgsIg6It-62" value="" style="endArrow=none;html=1;rounded=0;exitX=1;exitY=0.5;exitDx=0;exitDy=0;entryX=0;entryY=0.75;entryDx=0;entryDy=0;" parent="1" source="CwxjlhTfIW4MWgsIg6It-60" target="CwxjlhTfIW4MWgsIg6It-58" edge="1">
          <mxGeometry relative="1" as="geometry">
            <mxPoint x="1390" y="595" as="sourcePoint" />
            <mxPoint x="1550" y="595" as="targetPoint" />
          </mxGeometry>
        </mxCell>
        <mxCell id="CwxjlhTfIW4MWgsIg6It-63" value="" style="endArrow=none;html=1;rounded=0;exitX=1;exitY=1;exitDx=0;exitDy=0;entryX=0;entryY=0;entryDx=0;entryDy=0;" parent="1" source="CwxjlhTfIW4MWgsIg6It-59" target="CwxjlhTfIW4MWgsIg6It-58" edge="1">
          <mxGeometry relative="1" as="geometry">
            <mxPoint x="1380" y="565" as="sourcePoint" />
            <mxPoint x="1450" y="535" as="targetPoint" />
          </mxGeometry>
        </mxCell>
        <mxCell id="CwxjlhTfIW4MWgsIg6It-64" value="" style="endArrow=none;html=1;rounded=0;exitX=0.5;exitY=1;exitDx=0;exitDy=0;entryX=0.5;entryY=0;entryDx=0;entryDy=0;" parent="1" source="CwxjlhTfIW4MWgsIg6It-61" target="CwxjlhTfIW4MWgsIg6It-58" edge="1">
          <mxGeometry relative="1" as="geometry">
            <mxPoint x="1380" y="555" as="sourcePoint" />
            <mxPoint x="1420" y="590" as="targetPoint" />
          </mxGeometry>
        </mxCell>
        <mxCell id="CwxjlhTfIW4MWgsIg6It-66" value="age" style="ellipse;whiteSpace=wrap;html=1;align=center;" parent="1" vertex="1">
          <mxGeometry x="1540" y="445" width="100" height="40" as="geometry" />
        </mxCell>
        <mxCell id="CwxjlhTfIW4MWgsIg6It-68" value="" style="endArrow=none;html=1;rounded=0;exitX=0.5;exitY=1;exitDx=0;exitDy=0;entryX=0.75;entryY=0;entryDx=0;entryDy=0;" parent="1" source="CwxjlhTfIW4MWgsIg6It-66" target="CwxjlhTfIW4MWgsIg6It-58" edge="1">
          <mxGeometry relative="1" as="geometry">
            <mxPoint x="1540" y="495" as="sourcePoint" />
            <mxPoint x="1510" y="575" as="targetPoint" />
          </mxGeometry>
        </mxCell>
        <mxCell id="CwxjlhTfIW4MWgsIg6It-69" value="gender" style="ellipse;whiteSpace=wrap;html=1;align=center;" parent="1" vertex="1">
          <mxGeometry x="1610" y="510" width="100" height="40" as="geometry" />
        </mxCell>
        <mxCell id="CwxjlhTfIW4MWgsIg6It-70" value="" style="endArrow=none;html=1;rounded=0;exitX=0;exitY=0.5;exitDx=0;exitDy=0;entryX=1;entryY=0.25;entryDx=0;entryDy=0;" parent="1" source="CwxjlhTfIW4MWgsIg6It-69" target="CwxjlhTfIW4MWgsIg6It-58" edge="1">
          <mxGeometry relative="1" as="geometry">
            <mxPoint x="1610" y="495" as="sourcePoint" />
            <mxPoint x="1540" y="575" as="targetPoint" />
          </mxGeometry>
        </mxCell>
        <mxCell id="CwxjlhTfIW4MWgsIg6It-71" value="created_at" style="ellipse;whiteSpace=wrap;html=1;align=center;" parent="1" vertex="1">
          <mxGeometry x="1210" y="515" width="100" height="40" as="geometry" />
        </mxCell>
        <mxCell id="CwxjlhTfIW4MWgsIg6It-72" value="" style="endArrow=none;html=1;rounded=0;exitX=1;exitY=0.5;exitDx=0;exitDy=0;" parent="1" source="CwxjlhTfIW4MWgsIg6It-71" edge="1">
          <mxGeometry relative="1" as="geometry">
            <mxPoint x="1355" y="509" as="sourcePoint" />
            <mxPoint x="1420" y="600" as="targetPoint" />
          </mxGeometry>
        </mxCell>
        <mxCell id="CwxjlhTfIW4MWgsIg6It-73" value="" style="endArrow=none;html=1;rounded=0;exitX=1;exitY=0.5;exitDx=0;exitDy=0;entryX=0;entryY=0.5;entryDx=0;entryDy=0;" parent="1" source="CwxjlhTfIW4MWgsIg6It-8" target="CwxjlhTfIW4MWgsIg6It-90" edge="1">
          <mxGeometry relative="1" as="geometry">
            <mxPoint x="950" y="650" as="sourcePoint" />
            <mxPoint x="1130" y="630" as="targetPoint" />
          </mxGeometry>
        </mxCell>
        <mxCell id="CwxjlhTfIW4MWgsIg6It-74" value="1" style="text;strokeColor=none;fillColor=none;spacingLeft=4;spacingRight=4;overflow=hidden;rotatable=0;points=[[0,0.5],[1,0.5]];portConstraint=eastwest;fontSize=12;whiteSpace=wrap;html=1;" parent="1" vertex="1">
          <mxGeometry x="1020" y="610" width="40" height="30" as="geometry" />
        </mxCell>
        <mxCell id="CwxjlhTfIW4MWgsIg6It-75" value="1" style="text;strokeColor=none;fillColor=none;spacingLeft=4;spacingRight=4;overflow=hidden;rotatable=0;points=[[0,0.5],[1,0.5]];portConstraint=eastwest;fontSize=12;whiteSpace=wrap;html=1;" parent="1" vertex="1">
          <mxGeometry x="1330" y="610" width="40" height="30" as="geometry" />
        </mxCell>
        <mxCell id="CwxjlhTfIW4MWgsIg6It-76" value="emergency" style="rounded=0;whiteSpace=wrap;html=1;" parent="1" vertex="1">
          <mxGeometry x="1420" y="290" width="120" height="60" as="geometry" />
        </mxCell>
        <mxCell id="CwxjlhTfIW4MWgsIg6It-77" value="contact_number" style="ellipse;whiteSpace=wrap;html=1;align=center;" parent="1" vertex="1">
          <mxGeometry x="1280" y="170" width="110" height="40" as="geometry" />
        </mxCell>
        <mxCell id="CwxjlhTfIW4MWgsIg6It-78" value="emergency_id" style="ellipse;whiteSpace=wrap;html=1;align=center;fontStyle=4;" parent="1" vertex="1">
          <mxGeometry x="1230" y="300" width="100" height="40" as="geometry" />
        </mxCell>
        <mxCell id="CwxjlhTfIW4MWgsIg6It-79" value="type" style="ellipse;whiteSpace=wrap;html=1;align=center;" parent="1" vertex="1">
          <mxGeometry x="1430" y="180" width="100" height="40" as="geometry" />
        </mxCell>
        <mxCell id="CwxjlhTfIW4MWgsIg6It-80" value="" style="endArrow=none;html=1;rounded=0;exitX=1;exitY=0.5;exitDx=0;exitDy=0;entryX=0;entryY=0.5;entryDx=0;entryDy=0;" parent="1" source="CwxjlhTfIW4MWgsIg6It-78" target="CwxjlhTfIW4MWgsIg6It-76" edge="1">
          <mxGeometry relative="1" as="geometry">
            <mxPoint x="1410" y="230" as="sourcePoint" />
            <mxPoint x="1570" y="230" as="targetPoint" />
          </mxGeometry>
        </mxCell>
        <mxCell id="CwxjlhTfIW4MWgsIg6It-81" value="" style="endArrow=none;html=1;rounded=0;exitX=1;exitY=1;exitDx=0;exitDy=0;entryX=0;entryY=0.25;entryDx=0;entryDy=0;" parent="1" source="CwxjlhTfIW4MWgsIg6It-77" target="CwxjlhTfIW4MWgsIg6It-76" edge="1">
          <mxGeometry relative="1" as="geometry">
            <mxPoint x="1400" y="200" as="sourcePoint" />
            <mxPoint x="1470" y="170" as="targetPoint" />
          </mxGeometry>
        </mxCell>
        <mxCell id="CwxjlhTfIW4MWgsIg6It-82" value="" style="endArrow=none;html=1;rounded=0;exitX=0.5;exitY=1;exitDx=0;exitDy=0;entryX=0.5;entryY=0;entryDx=0;entryDy=0;" parent="1" source="CwxjlhTfIW4MWgsIg6It-79" target="CwxjlhTfIW4MWgsIg6It-76" edge="1">
          <mxGeometry relative="1" as="geometry">
            <mxPoint x="1400" y="190" as="sourcePoint" />
            <mxPoint x="1440" y="225" as="targetPoint" />
          </mxGeometry>
        </mxCell>
        <mxCell id="CwxjlhTfIW4MWgsIg6It-83" value="Access" style="shape=rhombus;perimeter=rhombusPerimeter;whiteSpace=wrap;html=1;align=center;" parent="1" vertex="1">
          <mxGeometry x="1110" y="375" width="120" height="60" as="geometry" />
        </mxCell>
        <mxCell id="CwxjlhTfIW4MWgsIg6It-84" value="" style="endArrow=none;html=1;rounded=0;exitX=0;exitY=0.5;exitDx=0;exitDy=0;entryX=0.75;entryY=0;entryDx=0;entryDy=0;" parent="1" source="CwxjlhTfIW4MWgsIg6It-83" target="CwxjlhTfIW4MWgsIg6It-8" edge="1">
          <mxGeometry relative="1" as="geometry">
            <mxPoint x="990" y="455" as="sourcePoint" />
            <mxPoint x="980" y="590" as="targetPoint" />
          </mxGeometry>
        </mxCell>
        <mxCell id="CwxjlhTfIW4MWgsIg6It-85" value="" style="endArrow=none;html=1;rounded=0;exitX=0;exitY=1;exitDx=0;exitDy=0;entryX=1;entryY=0.5;entryDx=0;entryDy=0;" parent="1" source="CwxjlhTfIW4MWgsIg6It-76" target="CwxjlhTfIW4MWgsIg6It-83" edge="1">
          <mxGeometry relative="1" as="geometry">
            <mxPoint x="1120" y="415" as="sourcePoint" />
            <mxPoint x="980" y="590" as="targetPoint" />
          </mxGeometry>
        </mxCell>
        <mxCell id="CwxjlhTfIW4MWgsIg6It-86" value="1" style="text;strokeColor=none;fillColor=none;spacingLeft=4;spacingRight=4;overflow=hidden;rotatable=0;points=[[0,0.5],[1,0.5]];portConstraint=eastwest;fontSize=12;whiteSpace=wrap;html=1;" parent="1" vertex="1">
          <mxGeometry x="1010" y="470" width="40" height="30" as="geometry" />
        </mxCell>
        <mxCell id="CwxjlhTfIW4MWgsIg6It-87" value="m" style="text;strokeColor=none;fillColor=none;spacingLeft=4;spacingRight=4;overflow=hidden;rotatable=0;points=[[0,0.5],[1,0.5]];portConstraint=eastwest;fontSize=12;whiteSpace=wrap;html=1;" parent="1" vertex="1">
          <mxGeometry x="1340" y="330" width="40" height="30" as="geometry" />
        </mxCell>
        <mxCell id="CwxjlhTfIW4MWgsIg6It-88" value="created_at" style="ellipse;whiteSpace=wrap;html=1;align=center;" parent="1" vertex="1">
          <mxGeometry x="1210" y="220" width="110" height="40" as="geometry" />
        </mxCell>
        <mxCell id="CwxjlhTfIW4MWgsIg6It-89" value="" style="endArrow=none;html=1;rounded=0;exitX=1;exitY=0.5;exitDx=0;exitDy=0;" parent="1" source="CwxjlhTfIW4MWgsIg6It-88" edge="1">
          <mxGeometry relative="1" as="geometry">
            <mxPoint x="1384" y="214" as="sourcePoint" />
            <mxPoint x="1420" y="315" as="targetPoint" />
          </mxGeometry>
        </mxCell>
        <mxCell id="CwxjlhTfIW4MWgsIg6It-90" value="has" style="shape=rhombus;perimeter=rhombusPerimeter;whiteSpace=wrap;html=1;align=center;" parent="1" vertex="1">
          <mxGeometry x="1140" y="580" width="120" height="60" as="geometry" />
        </mxCell>
        <mxCell id="CwxjlhTfIW4MWgsIg6It-91" value="" style="endArrow=none;html=1;rounded=0;exitX=1;exitY=0.5;exitDx=0;exitDy=0;entryX=0;entryY=0.5;entryDx=0;entryDy=0;" parent="1" source="CwxjlhTfIW4MWgsIg6It-90" target="CwxjlhTfIW4MWgsIg6It-58" edge="1">
          <mxGeometry relative="1" as="geometry">
            <mxPoint x="1010" y="620" as="sourcePoint" />
            <mxPoint x="1150" y="620" as="targetPoint" />
          </mxGeometry>
        </mxCell>
        <mxCell id="CwxjlhTfIW4MWgsIg6It-92" value="news" style="rounded=0;whiteSpace=wrap;html=1;" parent="1" vertex="1">
          <mxGeometry x="880" y="290" width="120" height="60" as="geometry" />
        </mxCell>
        <mxCell id="CwxjlhTfIW4MWgsIg6It-93" value="Access" style="shape=rhombus;perimeter=rhombusPerimeter;whiteSpace=wrap;html=1;align=center;" parent="1" vertex="1">
          <mxGeometry x="880" y="425" width="120" height="60" as="geometry" />
        </mxCell>
        <mxCell id="CwxjlhTfIW4MWgsIg6It-94" value="" style="endArrow=none;html=1;rounded=0;exitX=0.5;exitY=1;exitDx=0;exitDy=0;entryX=0.5;entryY=0;entryDx=0;entryDy=0;" parent="1" source="CwxjlhTfIW4MWgsIg6It-93" target="CwxjlhTfIW4MWgsIg6It-8" edge="1">
          <mxGeometry relative="1" as="geometry">
            <mxPoint x="1120" y="415" as="sourcePoint" />
            <mxPoint x="980" y="590" as="targetPoint" />
          </mxGeometry>
        </mxCell>
        <mxCell id="CwxjlhTfIW4MWgsIg6It-95" value="1" style="edgeLabel;html=1;align=center;verticalAlign=middle;resizable=0;points=[];" parent="CwxjlhTfIW4MWgsIg6It-94" vertex="1" connectable="0">
          <mxGeometry x="-0.0055" y="-4" relative="1" as="geometry">
            <mxPoint as="offset" />
          </mxGeometry>
        </mxCell>
        <mxCell id="CwxjlhTfIW4MWgsIg6It-96" value="" style="endArrow=none;html=1;rounded=0;exitX=0.5;exitY=1;exitDx=0;exitDy=0;entryX=0.5;entryY=0;entryDx=0;entryDy=0;" parent="1" source="CwxjlhTfIW4MWgsIg6It-92" target="CwxjlhTfIW4MWgsIg6It-93" edge="1">
          <mxGeometry relative="1" as="geometry">
            <mxPoint x="950" y="495" as="sourcePoint" />
            <mxPoint x="940" y="420" as="targetPoint" />
          </mxGeometry>
        </mxCell>
        <mxCell id="CwxjlhTfIW4MWgsIg6It-97" value="1" style="edgeLabel;html=1;align=center;verticalAlign=middle;resizable=0;points=[];" parent="CwxjlhTfIW4MWgsIg6It-96" vertex="1" connectable="0">
          <mxGeometry x="-0.0055" y="-4" relative="1" as="geometry">
            <mxPoint as="offset" />
          </mxGeometry>
        </mxCell>
        <mxCell id="CwxjlhTfIW4MWgsIg6It-98" value="m&lt;div&gt;&lt;br&gt;&lt;/div&gt;" style="edgeLabel;html=1;align=center;verticalAlign=middle;resizable=0;points=[];" parent="CwxjlhTfIW4MWgsIg6It-96" vertex="1" connectable="0">
          <mxGeometry x="-0.1022" y="-6" relative="1" as="geometry">
            <mxPoint y="-1" as="offset" />
          </mxGeometry>
        </mxCell>
        <mxCell id="CwxjlhTfIW4MWgsIg6It-99" value="news_id" style="ellipse;whiteSpace=wrap;html=1;align=center;fontStyle=4;" parent="1" vertex="1">
          <mxGeometry x="720" y="280" width="100" height="40" as="geometry" />
        </mxCell>
        <mxCell id="CwxjlhTfIW4MWgsIg6It-100" value="" style="endArrow=none;html=1;rounded=0;exitX=1;exitY=0.5;exitDx=0;exitDy=0;entryX=0;entryY=0.5;entryDx=0;entryDy=0;" parent="1" source="CwxjlhTfIW4MWgsIg6It-99" target="CwxjlhTfIW4MWgsIg6It-92" edge="1">
          <mxGeometry relative="1" as="geometry">
            <mxPoint x="815" y="454" as="sourcePoint" />
            <mxPoint x="920" y="590" as="targetPoint" />
          </mxGeometry>
        </mxCell>
        <mxCell id="CwxjlhTfIW4MWgsIg6It-101" value="created_at" style="ellipse;whiteSpace=wrap;html=1;align=center;" parent="1" vertex="1">
          <mxGeometry x="670" y="210" width="110" height="40" as="geometry" />
        </mxCell>
        <mxCell id="CwxjlhTfIW4MWgsIg6It-102" value="" style="endArrow=none;html=1;rounded=0;exitX=1;exitY=0.5;exitDx=0;exitDy=0;entryX=0;entryY=0;entryDx=0;entryDy=0;" parent="1" source="CwxjlhTfIW4MWgsIg6It-101" target="CwxjlhTfIW4MWgsIg6It-92" edge="1">
          <mxGeometry relative="1" as="geometry">
            <mxPoint x="830" y="310" as="sourcePoint" />
            <mxPoint x="890" y="330" as="targetPoint" />
          </mxGeometry>
        </mxCell>
        <mxCell id="CwxjlhTfIW4MWgsIg6It-103" value="image" style="ellipse;whiteSpace=wrap;html=1;align=center;" parent="1" vertex="1">
          <mxGeometry x="830" y="150" width="100" height="40" as="geometry" />
        </mxCell>
        <mxCell id="CwxjlhTfIW4MWgsIg6It-104" value="" style="endArrow=none;html=1;rounded=0;exitX=0.5;exitY=1;exitDx=0;exitDy=0;entryX=0.5;entryY=0;entryDx=0;entryDy=0;" parent="1" source="CwxjlhTfIW4MWgsIg6It-103" target="CwxjlhTfIW4MWgsIg6It-92" edge="1">
          <mxGeometry relative="1" as="geometry">
            <mxPoint x="840" y="230" as="sourcePoint" />
            <mxPoint x="920" y="300" as="targetPoint" />
          </mxGeometry>
        </mxCell>
        <mxCell id="CwxjlhTfIW4MWgsIg6It-105" value="headline" style="ellipse;whiteSpace=wrap;html=1;align=center;" parent="1" vertex="1">
          <mxGeometry x="940" y="140" width="100" height="40" as="geometry" />
        </mxCell>
        <mxCell id="CwxjlhTfIW4MWgsIg6It-106" value="" style="endArrow=none;html=1;rounded=0;exitX=0.5;exitY=1;exitDx=0;exitDy=0;entryX=0.75;entryY=0;entryDx=0;entryDy=0;" parent="1" source="CwxjlhTfIW4MWgsIg6It-105" target="CwxjlhTfIW4MWgsIg6It-92" edge="1">
          <mxGeometry relative="1" as="geometry">
            <mxPoint x="890" y="200" as="sourcePoint" />
            <mxPoint x="950" y="300" as="targetPoint" />
          </mxGeometry>
        </mxCell>
        <mxCell id="CwxjlhTfIW4MWgsIg6It-107" value="smalldescription" style="ellipse;whiteSpace=wrap;html=1;align=center;" parent="1" vertex="1">
          <mxGeometry x="1050" y="200" width="100" height="40" as="geometry" />
        </mxCell>
        <mxCell id="CwxjlhTfIW4MWgsIg6It-108" value="" style="endArrow=none;html=1;rounded=0;exitX=0;exitY=0.5;exitDx=0;exitDy=0;entryX=1;entryY=0;entryDx=0;entryDy=0;" parent="1" source="CwxjlhTfIW4MWgsIg6It-107" target="CwxjlhTfIW4MWgsIg6It-92" edge="1">
          <mxGeometry relative="1" as="geometry">
            <mxPoint x="1000" y="190" as="sourcePoint" />
            <mxPoint x="980" y="300" as="targetPoint" />
          </mxGeometry>
        </mxCell>
        <mxCell id="oE_XRQ_vZmTgWbJJ4Rda-1" value="done by" style="shape=rhombus;perimeter=rhombusPerimeter;whiteSpace=wrap;html=1;align=center;" parent="1" vertex="1">
          <mxGeometry x="890" y="690" width="100" height="60" as="geometry" />
        </mxCell>
        <mxCell id="oE_XRQ_vZmTgWbJJ4Rda-2" value="" style="endArrow=none;html=1;rounded=0;entryX=0.5;entryY=0;entryDx=0;entryDy=0;exitX=0.5;exitY=1;exitDx=0;exitDy=0;" parent="1" source="CwxjlhTfIW4MWgsIg6It-8" target="oE_XRQ_vZmTgWbJJ4Rda-1" edge="1">
          <mxGeometry relative="1" as="geometry">
            <mxPoint x="950" y="760" as="sourcePoint" />
            <mxPoint x="950" y="860" as="targetPoint" />
            <Array as="points" />
          </mxGeometry>
        </mxCell>
        <mxCell id="oE_XRQ_vZmTgWbJJ4Rda-3" value="kyc_application" style="rounded=0;whiteSpace=wrap;html=1;" parent="1" vertex="1">
          <mxGeometry x="1440" y="900" width="120" height="60" as="geometry" />
        </mxCell>
        <mxCell id="oE_XRQ_vZmTgWbJJ4Rda-5" value="kyc_id" style="ellipse;whiteSpace=wrap;html=1;align=center;fontStyle=4;" parent="1" vertex="1">
          <mxGeometry x="1220" y="920" width="100" height="40" as="geometry" />
        </mxCell>
        <mxCell id="oE_XRQ_vZmTgWbJJ4Rda-6" value="adhaar_image_url" style="ellipse;whiteSpace=wrap;html=1;align=center;" parent="1" vertex="1">
          <mxGeometry x="1320" y="800" width="100" height="40" as="geometry" />
        </mxCell>
        <mxCell id="oE_XRQ_vZmTgWbJJ4Rda-7" value="" style="endArrow=none;html=1;rounded=0;exitX=1;exitY=0.5;exitDx=0;exitDy=0;entryX=0;entryY=0.75;entryDx=0;entryDy=0;" parent="1" source="oE_XRQ_vZmTgWbJJ4Rda-5" target="oE_XRQ_vZmTgWbJJ4Rda-3" edge="1">
          <mxGeometry relative="1" as="geometry">
            <mxPoint x="1400" y="882.5" as="sourcePoint" />
            <mxPoint x="1560" y="882.5" as="targetPoint" />
          </mxGeometry>
        </mxCell>
        <mxCell id="oE_XRQ_vZmTgWbJJ4Rda-9" value="" style="endArrow=none;html=1;rounded=0;exitX=0.5;exitY=1;exitDx=0;exitDy=0;entryX=0.25;entryY=0;entryDx=0;entryDy=0;" parent="1" source="oE_XRQ_vZmTgWbJJ4Rda-6" target="oE_XRQ_vZmTgWbJJ4Rda-3" edge="1">
          <mxGeometry relative="1" as="geometry">
            <mxPoint x="1390" y="842.5" as="sourcePoint" />
            <mxPoint x="1430" y="877.5" as="targetPoint" />
          </mxGeometry>
        </mxCell>
        <mxCell id="oE_XRQ_vZmTgWbJJ4Rda-10" value="kyc_status" style="ellipse;whiteSpace=wrap;html=1;align=center;" parent="1" vertex="1">
          <mxGeometry x="1650" y="880" width="100" height="40" as="geometry" />
        </mxCell>
        <mxCell id="oE_XRQ_vZmTgWbJJ4Rda-12" value="" style="endArrow=none;html=1;rounded=0;exitX=0;exitY=0.5;exitDx=0;exitDy=0;entryX=1;entryY=0.25;entryDx=0;entryDy=0;" parent="1" source="oE_XRQ_vZmTgWbJJ4Rda-10" target="oE_XRQ_vZmTgWbJJ4Rda-3" edge="1">
          <mxGeometry relative="1" as="geometry">
            <mxPoint x="1440" y="802.5" as="sourcePoint" />
            <mxPoint x="1490" y="862.5" as="targetPoint" />
          </mxGeometry>
        </mxCell>
        <mxCell id="oE_XRQ_vZmTgWbJJ4Rda-16" value="created_at" style="ellipse;whiteSpace=wrap;html=1;align=center;" parent="1" vertex="1">
          <mxGeometry x="1220" y="860" width="100" height="40" as="geometry" />
        </mxCell>
        <mxCell id="oE_XRQ_vZmTgWbJJ4Rda-17" value="" style="endArrow=none;html=1;rounded=0;exitX=1;exitY=0.5;exitDx=0;exitDy=0;entryX=0;entryY=0.25;entryDx=0;entryDy=0;" parent="1" source="oE_XRQ_vZmTgWbJJ4Rda-16" target="oE_XRQ_vZmTgWbJJ4Rda-3" edge="1">
          <mxGeometry relative="1" as="geometry">
            <mxPoint x="1365" y="796.5" as="sourcePoint" />
            <mxPoint x="1430" y="887.5" as="targetPoint" />
          </mxGeometry>
        </mxCell>
        <mxCell id="oE_XRQ_vZmTgWbJJ4Rda-20" value="has" style="shape=rhombus;perimeter=rhombusPerimeter;whiteSpace=wrap;html=1;align=center;" parent="1" vertex="1">
          <mxGeometry x="1420" y="730" width="120" height="60" as="geometry" />
        </mxCell>
        <mxCell id="oE_XRQ_vZmTgWbJJ4Rda-21" value="" style="endArrow=none;html=1;rounded=0;exitX=0.5;exitY=1;exitDx=0;exitDy=0;entryX=0.5;entryY=0;entryDx=0;entryDy=0;" parent="1" source="CwxjlhTfIW4MWgsIg6It-58" target="oE_XRQ_vZmTgWbJJ4Rda-20" edge="1">
          <mxGeometry relative="1" as="geometry">
            <mxPoint x="1010" y="620" as="sourcePoint" />
            <mxPoint x="1480" y="720" as="targetPoint" />
          </mxGeometry>
        </mxCell>
        <mxCell id="oE_XRQ_vZmTgWbJJ4Rda-23" value="" style="endArrow=none;html=1;rounded=0;exitX=0.5;exitY=1;exitDx=0;exitDy=0;entryX=0.364;entryY=0.075;entryDx=0;entryDy=0;entryPerimeter=0;" parent="1" source="oE_XRQ_vZmTgWbJJ4Rda-20" target="oE_XRQ_vZmTgWbJJ4Rda-3" edge="1">
          <mxGeometry relative="1" as="geometry">
            <mxPoint x="1490" y="650" as="sourcePoint" />
            <mxPoint x="1480" y="860" as="targetPoint" />
          </mxGeometry>
        </mxCell>
        <mxCell id="oE_XRQ_vZmTgWbJJ4Rda-24" value="1" style="text;strokeColor=none;fillColor=none;spacingLeft=4;spacingRight=4;overflow=hidden;rotatable=0;points=[[0,0.5],[1,0.5]];portConstraint=eastwest;fontSize=12;whiteSpace=wrap;html=1;" parent="1" vertex="1">
          <mxGeometry x="1430" y="650" width="40" height="30" as="geometry" />
        </mxCell>
        <mxCell id="oE_XRQ_vZmTgWbJJ4Rda-25" value="M" style="text;strokeColor=none;fillColor=none;spacingLeft=4;spacingRight=4;overflow=hidden;rotatable=0;points=[[0,0.5],[1,0.5]];portConstraint=eastwest;fontSize=12;whiteSpace=wrap;html=1;" parent="1" vertex="1">
          <mxGeometry x="1440" y="815" width="40" height="30" as="geometry" />
        </mxCell>
        <mxCell id="oE_XRQ_vZmTgWbJJ4Rda-26" value="notification" style="rounded=0;whiteSpace=wrap;html=1;" parent="1" vertex="1">
          <mxGeometry x="375" y="290" width="120" height="60" as="geometry" />
        </mxCell>
        <mxCell id="oE_XRQ_vZmTgWbJJ4Rda-27" value="notification_id" style="ellipse;whiteSpace=wrap;html=1;align=center;fontStyle=4;" parent="1" vertex="1">
          <mxGeometry x="215" y="280" width="100" height="40" as="geometry" />
        </mxCell>
        <mxCell id="oE_XRQ_vZmTgWbJJ4Rda-28" value="" style="endArrow=none;html=1;rounded=0;exitX=1;exitY=0.5;exitDx=0;exitDy=0;entryX=0;entryY=0.5;entryDx=0;entryDy=0;" parent="1" source="oE_XRQ_vZmTgWbJJ4Rda-27" target="oE_XRQ_vZmTgWbJJ4Rda-26" edge="1">
          <mxGeometry relative="1" as="geometry">
            <mxPoint x="310" y="454" as="sourcePoint" />
            <mxPoint x="415" y="590" as="targetPoint" />
          </mxGeometry>
        </mxCell>
        <mxCell id="oE_XRQ_vZmTgWbJJ4Rda-29" value="created_at" style="ellipse;whiteSpace=wrap;html=1;align=center;" parent="1" vertex="1">
          <mxGeometry x="215" y="200" width="110" height="40" as="geometry" />
        </mxCell>
        <mxCell id="oE_XRQ_vZmTgWbJJ4Rda-30" value="" style="endArrow=none;html=1;rounded=0;exitX=1;exitY=0.5;exitDx=0;exitDy=0;entryX=0.25;entryY=0;entryDx=0;entryDy=0;" parent="1" source="oE_XRQ_vZmTgWbJJ4Rda-29" target="oE_XRQ_vZmTgWbJJ4Rda-26" edge="1">
          <mxGeometry relative="1" as="geometry">
            <mxPoint x="325" y="310" as="sourcePoint" />
            <mxPoint x="385" y="330" as="targetPoint" />
          </mxGeometry>
        </mxCell>
        <mxCell id="oE_XRQ_vZmTgWbJJ4Rda-31" value="notification_type" style="ellipse;whiteSpace=wrap;html=1;align=center;" parent="1" vertex="1">
          <mxGeometry x="325" y="150" width="100" height="40" as="geometry" />
        </mxCell>
        <mxCell id="oE_XRQ_vZmTgWbJJ4Rda-32" value="" style="endArrow=none;html=1;rounded=0;exitX=0.5;exitY=1;exitDx=0;exitDy=0;entryX=0.5;entryY=0;entryDx=0;entryDy=0;" parent="1" source="oE_XRQ_vZmTgWbJJ4Rda-31" target="oE_XRQ_vZmTgWbJJ4Rda-26" edge="1">
          <mxGeometry relative="1" as="geometry">
            <mxPoint x="335" y="230" as="sourcePoint" />
            <mxPoint x="415" y="300" as="targetPoint" />
          </mxGeometry>
        </mxCell>
        <mxCell id="oE_XRQ_vZmTgWbJJ4Rda-33" value="notification_message" style="ellipse;whiteSpace=wrap;html=1;align=center;" parent="1" vertex="1">
          <mxGeometry x="435" y="130" width="125" height="50" as="geometry" />
        </mxCell>
        <mxCell id="oE_XRQ_vZmTgWbJJ4Rda-34" value="" style="endArrow=none;html=1;rounded=0;exitX=0.5;exitY=1;exitDx=0;exitDy=0;entryX=0.75;entryY=0;entryDx=0;entryDy=0;" parent="1" source="oE_XRQ_vZmTgWbJJ4Rda-33" target="oE_XRQ_vZmTgWbJJ4Rda-26" edge="1">
          <mxGeometry relative="1" as="geometry">
            <mxPoint x="385" y="200" as="sourcePoint" />
            <mxPoint x="445" y="300" as="targetPoint" />
          </mxGeometry>
        </mxCell>
        <mxCell id="oE_XRQ_vZmTgWbJJ4Rda-37" value="" style="endArrow=none;html=1;rounded=0;exitX=1;exitY=1;exitDx=0;exitDy=0;entryX=0;entryY=0.5;entryDx=0;entryDy=0;" parent="1" source="oE_XRQ_vZmTgWbJJ4Rda-26" target="oE_XRQ_vZmTgWbJJ4Rda-38" edge="1">
          <mxGeometry relative="1" as="geometry">
            <mxPoint x="815" y="454" as="sourcePoint" />
            <mxPoint x="580" y="410" as="targetPoint" />
          </mxGeometry>
        </mxCell>
        <mxCell id="oE_XRQ_vZmTgWbJJ4Rda-38" value="recieves" style="shape=rhombus;perimeter=rhombusPerimeter;whiteSpace=wrap;html=1;align=center;" parent="1" vertex="1">
          <mxGeometry x="590" y="405" width="120" height="60" as="geometry" />
        </mxCell>
        <mxCell id="oE_XRQ_vZmTgWbJJ4Rda-39" value="" style="endArrow=none;html=1;rounded=0;exitX=1;exitY=0.5;exitDx=0;exitDy=0;entryX=0;entryY=0;entryDx=0;entryDy=0;" parent="1" source="oE_XRQ_vZmTgWbJJ4Rda-38" target="CwxjlhTfIW4MWgsIg6It-8" edge="1">
          <mxGeometry relative="1" as="geometry">
            <mxPoint x="660" y="470" as="sourcePoint" />
            <mxPoint x="755" y="555" as="targetPoint" />
          </mxGeometry>
        </mxCell>
        <mxCell id="oE_XRQ_vZmTgWbJJ4Rda-40" value="m" style="text;strokeColor=none;fillColor=none;spacingLeft=4;spacingRight=4;overflow=hidden;rotatable=0;points=[[0,0.5],[1,0.5]];portConstraint=eastwest;fontSize=12;whiteSpace=wrap;html=1;" parent="1" vertex="1">
          <mxGeometry x="510" y="320" width="40" height="30" as="geometry" />
        </mxCell>
        <mxCell id="oE_XRQ_vZmTgWbJJ4Rda-41" value="1" style="text;strokeColor=none;fillColor=none;spacingLeft=4;spacingRight=4;overflow=hidden;rotatable=0;points=[[0,0.5],[1,0.5]];portConstraint=eastwest;fontSize=12;whiteSpace=wrap;html=1;" parent="1" vertex="1">
          <mxGeometry x="800" y="535" width="40" height="30" as="geometry" />
        </mxCell>
        <mxCell id="oE_XRQ_vZmTgWbJJ4Rda-43" value="" style="endArrow=none;html=1;rounded=0;exitX=1;exitY=0.5;exitDx=0;exitDy=0;entryX=0;entryY=0.5;entryDx=0;entryDy=0;" parent="1" source="CwxjlhTfIW4MWgsIg6It-43" target="oE_XRQ_vZmTgWbJJ4Rda-42" edge="1">
          <mxGeometry relative="1" as="geometry">
            <mxPoint x="510" y="880" as="sourcePoint" />
            <mxPoint x="880" y="880" as="targetPoint" />
          </mxGeometry>
        </mxCell>
        <mxCell id="oE_XRQ_vZmTgWbJJ4Rda-42" value="has" style="shape=rhombus;perimeter=rhombusPerimeter;whiteSpace=wrap;html=1;align=center;" parent="1" vertex="1">
          <mxGeometry x="630" y="900" width="100" height="60" as="geometry" />
        </mxCell>
        <mxCell id="oE_XRQ_vZmTgWbJJ4Rda-46" value="" style="endArrow=none;html=1;rounded=0;exitX=0;exitY=1;exitDx=0;exitDy=0;entryX=0.75;entryY=0;entryDx=0;entryDy=0;" parent="1" source="CwxjlhTfIW4MWgsIg6It-8" target="oE_XRQ_vZmTgWbJJ4Rda-45" edge="1">
          <mxGeometry relative="1" as="geometry">
            <mxPoint x="880" y="625" as="sourcePoint" />
            <mxPoint x="480" y="850" as="targetPoint" />
          </mxGeometry>
        </mxCell>
        <mxCell id="oE_XRQ_vZmTgWbJJ4Rda-45" value="add" style="shape=rhombus;perimeter=rhombusPerimeter;whiteSpace=wrap;html=1;align=center;" parent="1" vertex="1">
          <mxGeometry x="550" y="730" width="120" height="60" as="geometry" />
        </mxCell>
        <mxCell id="pV1LWXxKRKo3Fyp0Zrt6-1" value="has&lt;div&gt;&lt;br&gt;&lt;/div&gt;" style="shape=rhombus;perimeter=rhombusPerimeter;whiteSpace=wrap;html=1;align=center;" parent="1" vertex="1">
          <mxGeometry x="550" y="580" width="120" height="60" as="geometry" />
        </mxCell>
        <mxCell id="pV1LWXxKRKo3Fyp0Zrt6-2" value="m" style="endArrow=none;html=1;rounded=0;entryX=0;entryY=0.5;entryDx=0;entryDy=0;" parent="1" target="CwxjlhTfIW4MWgsIg6It-8" edge="1">
          <mxGeometry relative="1" as="geometry">
            <mxPoint x="670" y="610" as="sourcePoint" />
            <mxPoint x="585" y="692.5" as="targetPoint" />
          </mxGeometry>
        </mxCell>
        <mxCell id="pV1LWXxKRKo3Fyp0Zrt6-4" value="1" style="endArrow=none;html=1;rounded=0;exitX=1;exitY=0.5;exitDx=0;exitDy=0;" parent="1" source="CwxjlhTfIW4MWgsIg6It-1" edge="1">
          <mxGeometry relative="1" as="geometry">
            <mxPoint x="495" y="610" as="sourcePoint" />
            <mxPoint x="550" y="610" as="targetPoint" />
          </mxGeometry>
        </mxCell>
        <mxCell id="sx5g2W0u4SXz_BneO0MM-2" value="report_vote" style="rounded=0;whiteSpace=wrap;html=1;" parent="1" vertex="1">
          <mxGeometry x="1090" y="720" width="120" height="60" as="geometry" />
        </mxCell>
        <mxCell id="sx5g2W0u4SXz_BneO0MM-4" value="" style="endArrow=none;html=1;rounded=0;exitX=1;exitY=1;exitDx=0;exitDy=0;entryX=0.5;entryY=0;entryDx=0;entryDy=0;" parent="1" source="sx5g2W0u4SXz_BneO0MM-6" target="sx5g2W0u4SXz_BneO0MM-2" edge="1">
          <mxGeometry relative="1" as="geometry">
            <mxPoint x="1010" y="620" as="sourcePoint" />
            <mxPoint x="1150" y="620" as="targetPoint" />
          </mxGeometry>
        </mxCell>
        <mxCell id="sx5g2W0u4SXz_BneO0MM-5" value="" style="endArrow=none;html=1;rounded=0;exitX=0.75;exitY=0;exitDx=0;exitDy=0;entryX=0.25;entryY=1;entryDx=0;entryDy=0;" parent="1" source="sx5g2W0u4SXz_BneO0MM-8" target="sx5g2W0u4SXz_BneO0MM-2" edge="1">
          <mxGeometry relative="1" as="geometry">
            <mxPoint x="1010" y="650" as="sourcePoint" />
            <mxPoint x="1130" y="730" as="targetPoint" />
          </mxGeometry>
        </mxCell>
        <mxCell id="sx5g2W0u4SXz_BneO0MM-7" value="" style="endArrow=none;html=1;rounded=0;exitX=1;exitY=1;exitDx=0;exitDy=0;entryX=0.5;entryY=0;entryDx=0;entryDy=0;" parent="1" source="CwxjlhTfIW4MWgsIg6It-8" target="sx5g2W0u4SXz_BneO0MM-6" edge="1">
          <mxGeometry relative="1" as="geometry">
            <mxPoint x="1000" y="640" as="sourcePoint" />
            <mxPoint x="1150" y="720" as="targetPoint" />
          </mxGeometry>
        </mxCell>
        <mxCell id="sx5g2W0u4SXz_BneO0MM-6" value="has" style="shape=rhombus;perimeter=rhombusPerimeter;whiteSpace=wrap;html=1;align=center;" parent="1" vertex="1">
          <mxGeometry x="1010" y="650" width="100" height="60" as="geometry" />
        </mxCell>
        <mxCell id="sx5g2W0u4SXz_BneO0MM-9" value="" style="endArrow=none;html=1;rounded=0;exitX=0.75;exitY=0;exitDx=0;exitDy=0;entryX=0.25;entryY=1;entryDx=0;entryDy=0;" parent="1" source="CwxjlhTfIW4MWgsIg6It-23" target="sx5g2W0u4SXz_BneO0MM-8" edge="1">
          <mxGeometry relative="1" as="geometry">
            <mxPoint x="970" y="900" as="sourcePoint" />
            <mxPoint x="1120" y="780" as="targetPoint" />
          </mxGeometry>
        </mxCell>
        <mxCell id="sx5g2W0u4SXz_BneO0MM-8" value="done by" style="shape=rhombus;perimeter=rhombusPerimeter;whiteSpace=wrap;html=1;align=center;" parent="1" vertex="1">
          <mxGeometry x="1000" y="805" width="100" height="60" as="geometry" />
        </mxCell>
        <mxCell id="sx5g2W0u4SXz_BneO0MM-10" value="upvoted" style="ellipse;whiteSpace=wrap;html=1;align=center;" parent="1" vertex="1">
          <mxGeometry x="1285" y="690" width="100" height="40" as="geometry" />
        </mxCell>
        <mxCell id="sx5g2W0u4SXz_BneO0MM-11" value="" style="endArrow=none;html=1;rounded=0;exitX=0;exitY=0.5;exitDx=0;exitDy=0;entryX=1;entryY=0.5;entryDx=0;entryDy=0;" parent="1" source="sx5g2W0u4SXz_BneO0MM-10" target="sx5g2W0u4SXz_BneO0MM-2" edge="1">
          <mxGeometry relative="1" as="geometry">
            <mxPoint x="1095" y="705" as="sourcePoint" />
            <mxPoint x="1160" y="730" as="targetPoint" />
          </mxGeometry>
        </mxCell>
        <mxCell id="sx5g2W0u4SXz_BneO0MM-12" value="downvoted" style="ellipse;whiteSpace=wrap;html=1;align=center;" parent="1" vertex="1">
          <mxGeometry x="1260" y="750" width="100" height="40" as="geometry" />
        </mxCell>
        <mxCell id="sx5g2W0u4SXz_BneO0MM-13" value="" style="endArrow=none;html=1;rounded=0;exitX=0;exitY=0.5;exitDx=0;exitDy=0;entryX=1;entryY=0.75;entryDx=0;entryDy=0;" parent="1" source="sx5g2W0u4SXz_BneO0MM-12" target="sx5g2W0u4SXz_BneO0MM-2" edge="1">
          <mxGeometry relative="1" as="geometry">
            <mxPoint x="1250" y="730" as="sourcePoint" />
            <mxPoint x="1220" y="760" as="targetPoint" />
          </mxGeometry>
        </mxCell>
        <mxCell id="sx5g2W0u4SXz_BneO0MM-14" value="m" style="text;strokeColor=none;fillColor=none;spacingLeft=4;spacingRight=4;overflow=hidden;rotatable=0;points=[[0,0.5],[1,0.5]];portConstraint=eastwest;fontSize=12;whiteSpace=wrap;html=1;" parent="1" vertex="1">
          <mxGeometry x="1060" y="775" width="40" height="30" as="geometry" />
        </mxCell>
        <mxCell id="sx5g2W0u4SXz_BneO0MM-15" value="1" style="text;strokeColor=none;fillColor=none;spacingLeft=4;spacingRight=4;overflow=hidden;rotatable=0;points=[[0,0.5],[1,0.5]];portConstraint=eastwest;fontSize=12;whiteSpace=wrap;html=1;" parent="1" vertex="1">
          <mxGeometry x="990" y="640" width="40" height="30" as="geometry" />
        </mxCell>
        <mxCell id="sx5g2W0u4SXz_BneO0MM-16" value="m" style="text;strokeColor=none;fillColor=none;spacingLeft=4;spacingRight=4;overflow=hidden;rotatable=0;points=[[0,0.5],[1,0.5]];portConstraint=eastwest;fontSize=12;whiteSpace=wrap;html=1;" parent="1" vertex="1">
          <mxGeometry x="1130" y="685" width="40" height="30" as="geometry" />
        </mxCell>
        <mxCell id="sx5g2W0u4SXz_BneO0MM-17" value="1" style="text;strokeColor=none;fillColor=none;spacingLeft=4;spacingRight=4;overflow=hidden;rotatable=0;points=[[0,0.5],[1,0.5]];portConstraint=eastwest;fontSize=12;whiteSpace=wrap;html=1;" parent="1" vertex="1">
          <mxGeometry x="960" y="860" width="40" height="30" as="geometry" />
        </mxCell>
        <mxCell id="sx5g2W0u4SXz_BneO0MM-18" value="report_id" style="ellipse;whiteSpace=wrap;html=1;align=center;fontStyle=4;" parent="1" vertex="1">
          <mxGeometry x="1170" y="650" width="100" height="40" as="geometry" />
        </mxCell>
        <mxCell id="sx5g2W0u4SXz_BneO0MM-19" value="" style="endArrow=none;html=1;rounded=0;exitX=0.5;exitY=1;exitDx=0;exitDy=0;entryX=1.117;entryY=1.211;entryDx=0;entryDy=0;entryPerimeter=0;" parent="1" source="sx5g2W0u4SXz_BneO0MM-18" target="sx5g2W0u4SXz_BneO0MM-16" edge="1">
          <mxGeometry relative="1" as="geometry">
            <mxPoint x="1295" y="720" as="sourcePoint" />
            <mxPoint x="1220" y="760" as="targetPoint" />
          </mxGeometry>
        </mxCell>
        <mxCell id="qf6BU_xaEzGrlj_RKFBR-1" value="detials" style="ellipse;whiteSpace=wrap;html=1;align=center;" vertex="1" parent="1">
          <mxGeometry x="1070" y="270" width="100" height="40" as="geometry" />
        </mxCell>
        <mxCell id="qf6BU_xaEzGrlj_RKFBR-2" value="" style="endArrow=none;html=1;rounded=0;exitX=0;exitY=0.5;exitDx=0;exitDy=0;entryX=1;entryY=0.5;entryDx=0;entryDy=0;" edge="1" parent="1" source="qf6BU_xaEzGrlj_RKFBR-1" target="CwxjlhTfIW4MWgsIg6It-92">
          <mxGeometry relative="1" as="geometry">
            <mxPoint x="1060" y="230" as="sourcePoint" />
            <mxPoint x="1010" y="300" as="targetPoint" />
          </mxGeometry>
        </mxCell>
        <mxCell id="qf6BU_xaEzGrlj_RKFBR-3" value="updated_at" style="ellipse;whiteSpace=wrap;html=1;align=center;" vertex="1" parent="1">
          <mxGeometry x="710" y="150" width="110" height="40" as="geometry" />
        </mxCell>
        <mxCell id="qf6BU_xaEzGrlj_RKFBR-4" value="" style="endArrow=none;html=1;rounded=0;exitX=1;exitY=1;exitDx=0;exitDy=0;entryX=0.25;entryY=0;entryDx=0;entryDy=0;" edge="1" parent="1" source="qf6BU_xaEzGrlj_RKFBR-3" target="CwxjlhTfIW4MWgsIg6It-92">
          <mxGeometry relative="1" as="geometry">
            <mxPoint x="790" y="240" as="sourcePoint" />
            <mxPoint x="920" y="300" as="targetPoint" />
          </mxGeometry>
        </mxCell>
      </root>
    </mxGraphModel>
  </diagram>
</mxfile>
